<svg width="1200" height="760" viewBox="0 0 1200 760" fill="none" xmlns="http://www.w3.org/2000/svg" role="img" aria-labelledby="title desc">
  <title id="title">NoBroker service pod operations dashboard</title>
  <desc id="desc">A polished service operations dashboard showing support pods, SLA cards, active tickets, escalation rules, and customer journey ownership.</desc>
  <rect width="1200" height="760" rx="42" fill="#F8F2EA"/>
  <circle cx="1000" cy="110" r="210" fill="#E9F3EE"/>
  <circle cx="190" cy="650" r="250" fill="#F0E3D8"/>
  <rect x="82" y="76" width="1036" height="608" rx="34" fill="white" stroke="#E0D6C9" stroke-width="2"/>
  <rect x="82" y="76" width="1036" height="82" rx="34" fill="#12233B"/>
  <text x="126" y="127" fill="white" font-family="Inter, Arial, sans-serif" font-size="30" font-weight="700">Consumer Service Pod</text>
  <text x="840" y="126" fill="#BFD2C8" font-family="Inter, Arial, sans-serif" font-size="18" font-weight="600">Live service health</text>
  <circle cx="1078" cy="118" r="15" fill="#7DA191"/>
  <rect x="126" y="196" width="206" height="126" rx="22" fill="#F7FBF8" stroke="#D9E6DE"/>
  <rect x="358" y="196" width="206" height="126" rx="22" fill="#FFF8E9" stroke="#F0DDB6"/>
  <rect x="590" y="196" width="206" height="126" rx="22" fill="#F5F3FF" stroke="#DED8F5"/>
  <rect x="822" y="196" width="206" height="126" rx="22" fill="#FFF1F1" stroke="#F2D4D4"/>
  <text x="154" y="235" fill="#758A9A" font-family="Inter, Arial, sans-serif" font-size="16" font-weight="700" letter-spacing="2">OPEN CASES</text>
  <text x="154" y="286" fill="#12233B" font-family="Inter, Arial, sans-serif" font-size="54" font-weight="800">128</text>
  <text x="386" y="235" fill="#758A9A" font-family="Inter, Arial, sans-serif" font-size="16" font-weight="700" letter-spacing="2">SLA RISK</text>
  <text x="386" y="286" fill="#12233B" font-family="Inter, Arial, sans-serif" font-size="54" font-weight="800">14</text>
  <text x="618" y="235" fill="#758A9A" font-family="Inter, Arial, sans-serif" font-size="16" font-weight="700" letter-spacing="2">ESCALATED</text>
  <text x="618" y="286" fill="#12233B" font-family="Inter, Arial, sans-serif" font-size="54" font-weight="800">07</text>
  <text x="850" y="235" fill="#758A9A" font-family="Inter, Arial, sans-serif" font-size="16" font-weight="700" letter-spacing="2">REOPENED</text>
  <text x="850" y="286" fill="#12233B" font-family="Inter, Arial, sans-serif" font-size="54" font-weight="800">11</text>
  <rect x="126" y="360" width="610" height="270" rx="28" fill="#FBFAF7" stroke="#E0D6C9"/>
  <text x="156" y="405" fill="#12233B" font-family="Inter, Arial, sans-serif" font-size="24" font-weight="800">Pod queue requiring attention</text>
  <rect x="156" y="430" width="540" height="54" rx="16" fill="white" stroke="#E1E8EF"/>
  <circle cx="184" cy="457" r="10" fill="#E45757"/>
  <text x="210" y="464" fill="#12233B" font-family="Inter, Arial, sans-serif" font-size="19" font-weight="700">Move-in delay after payment confirmation</text>
  <text x="604" y="464" fill="#E45757" font-family="Inter, Arial, sans-serif" font-size="15" font-weight="800">SLA 2h</text>
  <rect x="156" y="499" width="540" height="54" rx="16" fill="white" stroke="#E1E8EF"/>
  <circle cx="184" cy="526" r="10" fill="#F1B84B"/>
  <text x="210" y="533" fill="#12233B" font-family="Inter, Arial, sans-serif" font-size="19" font-weight="700">Refund status unclear to customer</text>
  <text x="594" y="533" fill="#A06418" font-family="Inter, Arial, sans-serif" font-size="15" font-weight="800">Owner</text>
  <rect x="156" y="568" width="540" height="42" rx="14" fill="#EFF7F3" stroke="#D9E6DE"/>
  <text x="210" y="595" fill="#406B5B" font-family="Inter, Arial, sans-serif" font-size="17" font-weight="700">Root-cause themes sync to product backlog</text>
  <path d="M176 590h18m-9-9v18" stroke="#7DA191" stroke-width="4" stroke-linecap="round"/>
  <rect x="778" y="360" width="250" height="270" rx="28" fill="#12233B"/>
  <text x="810" y="407" fill="#BFD2C8" font-family="Inter, Arial, sans-serif" font-size="16" font-weight="800" letter-spacing="2">JOURNEY OWNER</text>
  <circle cx="902" cy="485" r="58" fill="#7DA191"/>
  <circle cx="884" cy="470" r="8" fill="white"/>
  <circle cx="920" cy="470" r="8" fill="white"/>
  <path d="M872 512c22 16 44 16 66 0" stroke="white" stroke-width="7" stroke-linecap="round"/>
  <text x="828" y="583" fill="white" font-family="Inter, Arial, sans-serif" font-size="22" font-weight="800">One pod, one owner</text>
  <text x="828" y="612" fill="#D6E1DD" font-family="Inter, Arial, sans-serif" font-size="16">Intake → triage → action → closure</text>
</svg>
