<svg width="1200" height="760" viewBox="0 0 1200 760" fill="none" xmlns="http://www.w3.org/2000/svg" role="img" aria-labelledby="title desc">
  <title id="title">Streaming subscription growth interface</title>
  <desc id="desc">A streaming subscription product visual showing content discovery, value prompts, watchlist habit, and conversion metrics.</desc>
  <rect width="1200" height="760" rx="42" fill="#F5F8FB"/>
  <circle cx="928" cy="178" r="230" fill="#DFF1F4"/>
  <circle cx="230" cy="600" r="260" fill="#EFE3F6"/>
  <rect x="88" y="72" width="1024" height="618" rx="38" fill="#101827"/>
  <rect x="128" y="120" width="704" height="398" rx="30" fill="#1B2940" stroke="#2C3D5C"/>
  <rect x="158" y="154" width="644" height="210" rx="26" fill="#243A5F"/>
  <circle cx="480" cy="260" r="56" fill="#00A8E1"/>
  <path d="M464 230l54 30-54 30v-60z" fill="white"/>
  <text x="158" y="414" fill="white" font-family="Inter, Arial, sans-serif" font-size="30" font-weight="800">Exclusive title value moment</text>
  <text x="158" y="452" fill="#C7D4E8" font-family="Inter, Arial, sans-serif" font-size="20">Prompt appears after trailer play, watchlist add, or locked-title intent.</text>
  <rect x="158" y="480" width="190" height="54" rx="18" fill="#00A8E1"/>
  <text x="199" y="515" fill="white" font-family="Inter, Arial, sans-serif" font-size="18" font-weight="800">Start Prime</text>
  <rect x="374" y="480" width="210" height="54" rx="18" fill="#263854" stroke="#465A7C"/>
  <text x="423" y="515" fill="#DCE7F5" font-family="Inter, Arial, sans-serif" font-size="18" font-weight="800">Add to watchlist</text>
  <rect x="866" y="120" width="206" height="398" rx="30" fill="#F9FBFD"/>
  <text x="894" y="170" fill="#101827" font-family="Inter, Arial, sans-serif" font-size="22" font-weight="800">Growth loop</text>
  <rect x="898" y="206" width="142" height="74" rx="18" fill="#E8F7FC"/>
  <text x="920" y="250" fill="#14627A" font-family="Inter, Arial, sans-serif" font-size="17" font-weight="800">Discover</text>
  <rect x="898" y="304" width="142" height="74" rx="18" fill="#F0E7F8"/>
  <text x="928" y="348" fill="#65437A" font-family="Inter, Arial, sans-serif" font-size="17" font-weight="800">Convert</text>
  <rect x="898" y="402" width="142" height="74" rx="18" fill="#E9F4EE"/>
  <text x="928" y="446" fill="#3F6B5B" font-family="Inter, Arial, sans-serif" font-size="17" font-weight="800">Retain</text>
  <path d="M969 280v22m0 76v22" stroke="#9FAFC2" stroke-width="5" stroke-linecap="round"/>
  <rect x="128" y="556" width="944" height="86" rx="24" fill="#F9FBFD"/>
  <text x="164" y="609" fill="#101827" font-family="Inter, Arial, sans-serif" font-size="23" font-weight="800">Activation → value proof → paid conversion → viewing habit</text>
  <rect x="788" y="582" width="210" height="34" rx="17" fill="#DFF1F4"/>
  <text x="818" y="605" fill="#14627A" font-family="Inter, Arial, sans-serif" font-size="15" font-weight="800">Measure churn risk</text>
</svg>
