<svg xmlns="http://www.w3.org/2000/svg" viewBox="0 0 360 220" role="img" aria-labelledby="title">
  <title id="title">Travel landscape illustration</title>
  <defs>
    <linearGradient id="sky" x1="0" x2="1" y1="0" y2="1">
      <stop offset="0" stop-color="#dff4f6"/>
      <stop offset="1" stop-color="#fff1d8"/>
    </linearGradient>
  </defs>
  <rect width="360" height="220" rx="28" fill="url(#sky)"/>
  <circle cx="250" cy="82" r="54" fill="#ffd889"/>
  <path d="M46 176l70-70 48 35 58-61 92 96H46z" fill="#78988a"/>
  <path d="M46 176l70-70 48 35-28 35H46z" fill="#6f9482"/>
  <path d="M222 80l92 96-93 3 21-50z" fill="#4f745f"/>
  <path d="M156 103l124-43" stroke="#bca873" stroke-width="4" stroke-linecap="round"/>
  <path d="M188 118l78 22" stroke="#bca873" stroke-width="4" stroke-linecap="round"/>
  <path d="M82 72c0 34 40 62 40 62s40-28 40-62a40 40 0 0 0-80 0z" fill="none" stroke="#87918a" stroke-width="7"/>
  <circle cx="122" cy="72" r="16" fill="#87918a"/>
</svg>
