<svg xmlns="http://www.w3.org/2000/svg" viewBox="0 0 360 220" role="img" aria-labelledby="title">
  <title id="title">Books and notes illustration</title>
  <defs>
    <linearGradient id="bg" x1="0" x2="1" y1="0" y2="1">
      <stop offset="0" stop-color="#eef5f1"/>
      <stop offset="1" stop-color="#f4ebff"/>
    </linearGradient>
  </defs>
  <rect width="360" height="220" rx="28" fill="url(#bg)"/>
  <rect x="76" y="45" width="184" height="118" rx="20" fill="#fffdfa" filter="drop-shadow(0 16px 18px rgba(45,41,38,.12))"/>
  <path d="M76 64c0-10 8-19 19-19h73v118H95c-11 0-19-9-19-19V64z" fill="#f2eafa"/>
  <path d="M168 45h73c11 0 19 9 19 19v80c0 10-8 19-19 19h-73V45z" fill="#fffdfa"/>
  <path d="M168 49v111" stroke="#ded0f3" stroke-width="4"/>
  <rect x="202" y="76" width="82" height="7" rx="4" fill="#9bb7ad"/>
  <rect x="202" y="104" width="64" height="7" rx="4" fill="#b9cbc5"/>
  <rect x="202" y="132" width="74" height="7" rx="4" fill="#d7c3ed"/>
  <circle cx="105" cy="84" r="14" fill="#78988a"/>
  <rect x="94" y="112" width="50" height="6" rx="3" fill="#b78fd5"/>
</svg>
